<svg width="660" height="679" viewBox="0 0 660 679" fill="none" xmlns="http://www.w3.org/2000/svg">
<path d="M647.821 288.916L647.358 289.926C615.004 360.435 598.005 397.481 589.266 431.488C580.479 465.676 580.042 496.783 580.687 555.671C581.008 584.987 570.84 608.494 553.683 626.752C536.517 645.02 512.334 658.053 484.606 666.362C429.143 682.981 359.623 680.659 304.133 663.662C297.029 661.485 290.021 659.353 283.112 657.251C200.218 632.025 131.637 611.156 82.7819 571.641C29.9169 528.883 0.101151 464.236 0.504039 348.329C0.705442 290.387 11.2501 249.039 29.3948 217.769C47.5377 186.501 73.3065 165.261 104.044 147.579C127.054 134.343 152.818 123.115 180.24 111.164C189.472 107.141 198.891 103.036 208.456 98.7452C246.419 81.7151 286.637 61.7721 326.38 32.4263C405.511 -26.0021 502.121 2.53001 570.897 63.5879C605.275 94.1079 632.651 132.723 647.356 172.574C662.062 212.427 664.083 253.477 647.821 288.916Z" stroke="#212121"/>
<path d="M634.499 291.007L634.054 291.978C603.055 359.534 586.766 395.031 578.392 427.617C569.972 460.378 569.554 490.187 570.171 546.61C570.478 574.694 560.739 597.213 544.303 614.703C527.859 632.203 504.691 644.689 478.125 652.649C424.988 668.571 358.38 666.347 305.215 650.062C298.409 647.977 291.694 645.934 285.075 643.92C205.647 619.749 139.94 599.754 93.1323 561.896C42.4857 520.932 13.9186 458.997 14.3046 347.943C14.4976 292.427 24.6007 252.813 41.9838 222.855C59.3652 192.9 84.0526 172.552 113.502 155.61C135.548 142.928 160.232 132.171 186.508 120.72C195.353 116.865 204.378 112.932 213.544 108.82C249.919 92.5026 288.456 73.3932 326.538 45.2739C402.346 -10.7015 494.904 16.6305 560.798 75.1306C593.735 104.372 619.964 141.368 634.053 179.549C648.141 217.73 650.077 257.057 634.499 291.007Z" stroke="#212121"/>
<path d="M622.129 292.948L621.701 293.88C591.959 358.696 576.331 392.756 568.295 424.023C560.216 455.459 559.815 484.061 560.407 538.196C560.702 565.136 551.359 586.736 535.594 603.514C519.819 620.301 497.594 632.279 472.108 639.916C421.129 655.191 357.226 653.057 306.221 637.434C299.69 635.433 293.249 633.473 286.899 631.541C210.69 608.35 147.651 589.167 102.744 552.846C54.1571 513.548 26.7495 454.131 27.1199 347.584C27.305 294.322 36.998 256.318 53.6741 227.579C70.3483 198.842 94.0316 179.321 122.285 163.067C143.436 150.9 167.118 140.579 192.328 129.593C200.814 125.895 209.474 122.121 218.269 118.176C253.169 102.519 290.145 84.184 326.685 57.2036C399.408 3.50595 488.202 29.7236 551.421 85.8485C583.02 113.902 608.184 149.395 621.7 186.025C635.216 222.654 637.072 260.381 622.129 292.948Z" stroke="#212121"/>
<path d="M607.619 295.225L607.211 296.114C578.945 357.714 564.09 390.087 556.452 419.807C548.773 449.688 548.392 476.875 548.955 528.327C549.235 553.925 540.357 574.449 525.378 590.39C510.389 606.341 489.27 617.724 465.049 624.981C416.603 639.498 355.872 637.47 307.399 622.622C301.193 620.721 295.071 618.858 289.036 617.021C216.603 594.98 156.693 576.749 114.016 542.231C67.8456 504.887 41.798 448.424 42.15 347.163C42.326 296.543 51.5379 260.428 67.3846 233.118C83.2295 205.811 105.735 187.26 132.586 171.814C152.687 160.25 175.193 150.442 199.153 140C207.219 136.485 215.45 132.898 223.809 129.148C256.981 114.267 292.126 96.8402 326.856 71.1956C395.962 20.1694 480.341 45.0801 540.422 98.4192C570.452 125.08 594.366 158.811 607.21 193.62C620.055 228.43 621.818 264.28 607.619 295.225Z" stroke="#212121"/>
<path d="M593.398 297.456L593.009 298.304C566.19 356.752 552.093 387.472 544.846 415.674C537.558 444.031 537.196 469.832 537.73 518.653C537.996 542.937 529.575 562.405 515.365 577.526C501.147 592.658 481.111 603.457 458.132 610.342C412.168 624.115 354.547 622.191 308.555 608.104C302.667 606.3 296.858 604.532 291.132 602.79C222.4 581.874 165.558 564.577 125.066 531.827C81.2638 496.399 56.5492 442.83 56.8832 346.75C57.0501 298.721 65.7907 264.457 80.8244 238.547C95.8564 212.641 117.207 195.041 142.683 180.386C161.756 169.414 183.11 160.108 205.844 150.201C213.498 146.865 221.309 143.461 229.242 139.903C260.718 125.782 294.068 109.245 327.026 84.9098C392.585 36.5022 472.637 60.1318 529.642 110.74C558.135 136.036 580.824 168.039 593.01 201.064C605.196 234.091 606.868 268.1 593.398 297.456Z" stroke="#212121"/>
<path d="M578.012 299.872L577.644 300.675C552.389 355.712 539.113 384.644 532.287 411.205C525.423 437.914 525.083 462.215 525.586 508.19C525.836 531.051 517.908 549.377 504.532 563.612C491.147 577.856 472.284 588.024 450.648 594.507C407.368 607.475 353.111 605.664 309.805 592.399C304.26 590.701 298.791 589.036 293.399 587.396C228.67 567.698 175.147 551.41 137.02 520.573C95.7794 487.217 72.507 436.781 72.8215 346.305C72.9787 301.079 81.2092 268.817 95.3634 244.424C109.516 220.033 129.618 203.462 153.606 189.663C171.566 179.331 191.673 170.569 213.082 161.239C220.29 158.097 227.646 154.891 235.117 151.54C264.76 138.242 296.169 122.668 327.208 99.7491C388.93 54.1745 464.301 76.4181 517.979 124.073C544.808 147.891 566.171 178.025 577.645 209.121C589.12 240.217 590.693 272.236 578.012 299.872Z" stroke="#212121"/>
<path d="M561.986 302.387L561.64 303.14C538.015 354.627 525.594 381.696 519.207 406.548C512.784 431.54 512.466 454.279 512.937 497.29C513.171 518.668 505.758 535.805 493.249 549.116C480.731 562.437 463.091 571.947 442.852 578.011C402.37 590.141 351.617 588.447 311.108 576.039C305.921 574.45 300.805 572.893 295.762 571.359C235.203 552.93 185.136 537.694 149.472 508.849C110.9 477.651 89.1297 430.477 89.4238 345.84C89.5709 303.533 97.2701 273.357 110.508 250.542C123.745 227.731 142.546 212.231 164.985 199.323C181.785 189.659 200.594 181.462 220.622 172.734C227.366 169.795 234.248 166.795 241.238 163.659C268.971 151.219 298.357 136.647 327.399 115.204C385.125 72.5799 455.619 93.38 505.831 137.957C530.927 160.237 550.91 188.424 561.642 217.51C572.375 246.596 573.845 276.542 561.986 302.387Z" stroke="#212121"/>
<path d="M545.628 304.954L545.305 305.66C523.343 353.521 511.795 378.688 505.856 401.795C499.884 425.035 499.588 446.179 500.026 486.164C500.243 506.03 493.355 521.953 481.732 534.321C470.1 546.699 453.706 555.538 434.895 561.174C397.267 572.449 350.091 570.875 312.437 559.341C307.616 557.864 302.86 556.417 298.172 554.99C241.87 537.857 195.331 523.695 162.181 496.883C126.333 467.888 106.095 424.044 106.369 345.366C106.506 306.039 113.663 277.991 125.966 256.788C138.267 235.588 155.741 221.183 176.598 209.184C192.215 200.2 209.698 192.581 228.317 184.467C234.587 181.734 240.986 178.946 247.486 176.03C273.268 164.464 300.591 150.916 327.592 130.978C381.24 91.3665 446.757 110.693 493.432 152.13C516.759 172.839 535.332 199.039 545.308 226.073C555.284 253.108 556.648 280.938 545.628 304.954Z" stroke="#212121"/>
<path d="M529.011 307.562L528.709 308.219C508.438 352.397 497.776 375.633 492.293 396.967C486.778 418.426 486.505 437.95 486.909 474.862C487.11 493.191 480.755 507.88 470.032 519.291C459.3 530.712 444.173 538.868 426.812 544.07C392.084 554.476 348.541 553.023 313.787 542.378C309.337 541.015 304.948 539.679 300.621 538.362C248.643 522.545 205.688 509.473 175.092 484.726C142.011 457.97 123.331 417.508 123.584 344.885C123.71 308.584 130.316 282.7 141.669 263.133C153.021 243.57 169.145 230.276 188.396 219.202C202.81 210.91 218.947 203.877 236.135 196.387C241.923 193.864 247.831 191.29 253.832 188.598C277.634 177.92 302.86 165.412 327.79 147.004C377.293 110.452 437.754 128.282 480.835 166.528C502.365 185.642 519.507 209.824 528.714 234.773C537.92 259.724 539.178 285.404 529.011 307.562Z" stroke="#212121"/>
<path d="M510.309 310.495L510.034 311.096C491.664 351.129 481.999 372.192 477.029 391.532C472.029 410.987 471.782 428.688 472.148 462.141C472.329 478.74 466.575 492.042 456.865 502.375C447.146 512.718 433.444 520.106 417.715 524.819C386.25 534.247 346.796 532.931 315.306 523.286C311.274 522.05 307.297 520.84 303.377 519.647C256.265 505.31 217.343 493.466 189.621 471.044C159.654 446.806 142.728 410.151 142.956 344.341C143.071 311.447 149.057 287.996 159.341 270.272C169.624 252.551 184.23 240.508 201.673 230.474C214.734 222.96 229.356 216.588 244.933 209.8C250.179 207.513 255.534 205.18 260.974 202.739C282.547 193.061 305.413 181.724 328.011 165.038C372.851 131.929 427.622 148.074 466.658 182.729C486.166 200.048 501.698 221.958 510.039 244.562C518.38 267.167 519.518 290.427 510.309 310.495Z" stroke="#212121"/>
<path d="M493.379 313.154L493.127 313.705C476.479 349.986 467.717 369.081 463.211 386.614C458.677 404.256 458.453 420.306 458.785 450.627C458.949 465.661 453.738 477.706 444.945 487.063C436.143 496.43 423.731 503.124 409.479 507.394C380.969 515.937 345.218 514.745 316.683 506.004C313.029 504.885 309.425 503.788 305.872 502.707C263.166 489.711 227.896 478.978 202.776 458.66C175.628 436.703 160.288 403.494 160.495 343.851C160.599 314.041 166.024 292.794 175.34 276.738C184.655 260.685 197.887 249.774 213.693 240.681C225.53 233.872 238.78 228.098 252.898 221.945C257.654 219.873 262.508 217.757 267.44 215.544C286.996 206.772 307.725 196.494 328.212 181.366C368.83 151.375 418.451 165.995 453.825 197.4C471.502 213.093 485.575 232.946 493.133 253.426C500.69 273.908 501.719 294.978 493.379 313.154Z" stroke="#212121"/>
<path d="M473.635 316.252L473.409 316.744C458.769 348.649 451.06 365.449 447.095 380.877C443.105 396.403 442.909 410.529 443.201 437.198C443.345 450.405 438.767 460.985 431.044 469.205C423.311 477.434 412.404 483.317 399.875 487.071C374.811 494.582 343.376 493.534 318.287 485.849C315.074 484.865 311.905 483.9 308.781 482.95C271.213 471.517 240.201 462.079 218.115 444.216C194.255 424.918 180.766 395.728 180.948 343.278C181.039 317.065 185.81 298.387 193.998 284.276C202.184 270.168 213.813 260.577 227.71 252.583C238.119 246.595 249.769 241.518 262.186 236.107C266.37 234.283 270.641 232.422 274.981 230.475C292.183 222.758 310.421 213.716 328.446 200.406C364.141 174.05 407.754 186.891 438.858 214.505C454.4 228.303 466.773 245.758 473.416 263.762C480.06 281.767 480.962 300.283 473.635 316.252Z" stroke="#212121"/>
<path d="M452.869 319.51L452.671 319.941C440.143 347.243 433.541 361.63 430.146 374.843C426.728 388.144 426.56 400.245 426.81 423.073C426.933 434.36 423.022 443.398 416.423 450.421C409.814 457.454 400.491 462.484 389.774 465.696C368.333 472.12 341.439 471.224 319.974 464.649C317.226 463.807 314.514 462.982 311.842 462.169C279.678 452.38 253.145 444.306 234.25 429.024C213.848 412.522 202.306 387.56 202.462 342.676C202.539 320.245 206.621 304.27 213.622 292.205C220.621 280.142 230.565 271.941 242.455 265.101C251.36 259.978 261.328 255.634 271.956 251.002C275.538 249.441 279.195 247.847 282.912 246.18C297.639 239.574 313.257 231.83 328.693 220.433C359.209 197.9 396.504 208.871 423.117 232.498C436.413 244.302 446.997 259.234 452.679 274.633C458.362 290.034 459.131 305.863 452.869 319.51Z" stroke="#212121"/>
<path d="M432.291 322.74L432.122 323.109C421.686 345.852 416.182 357.847 413.351 368.865C410.499 379.961 410.36 390.056 410.568 409.078C410.671 418.462 407.419 425.974 401.935 431.81C396.441 437.657 388.686 441.843 379.764 444.516C361.915 449.865 339.52 449.119 321.646 443.645C319.357 442.943 317.1 442.256 314.874 441.579C288.064 433.42 265.97 426.696 250.238 413.972C233.262 400.241 223.648 379.468 223.778 342.08C223.843 323.397 227.242 310.1 233.067 300.062C238.89 290.027 247.163 283.201 257.064 277.506C264.481 273.239 272.781 269.622 281.636 265.763C284.622 264.462 287.671 263.133 290.771 261.742C303.045 256.236 316.066 249.781 328.937 240.277C354.321 221.534 385.356 230.651 407.519 250.327C418.59 260.156 427.401 272.588 432.131 285.406C436.861 298.226 437.498 311.393 432.291 322.74Z" stroke="#212121"/>
</svg>
